<svg xmlns="http://www.w3.org/2000/svg" viewBox="0 0 64 64" fill="none">
  <rect x="6" y="6" width="52" height="52" rx="10" fill="#ffd6e8"/>
  <rect x="6" y="6" width="52" height="52" rx="10" stroke="#7e2f51" stroke-width="4"/>
  <path
    d="M21 30V22.5c0-1.2 1.4-1.9 2.3-1.1l5 4.2a15.2 15.2 0 0 1 7.4 0l5-4.2c.9-.8 2.3-.1 2.3 1.1V30"
    stroke="#d4537e"
    stroke-width="4"
    stroke-linecap="round"
    stroke-linejoin="round"
  />
  <path
    d="M45 34.5c0 8-5.8 13.5-13 13.5s-13-5.5-13-13.5S24.8 23 32 23s13 3.5 13 11.5Z"
    stroke="#d4537e"
    stroke-width="4"
    stroke-linecap="round"
    stroke-linejoin="round"
  />
  <circle cx="27" cy="35" r="2.5" fill="#d4537e"/>
  <circle cx="37" cy="35" r="2.5" fill="#d4537e"/>
  <path
    d="M30 40c1.2 1.4 2.8 1.4 4 0"
    stroke="#d4537e"
    stroke-width="3"
    stroke-linecap="round"
  />
  <path
    d="M32 38.5v2"
    stroke="#d4537e"
    stroke-width="3"
    stroke-linecap="round"
  />
</svg>
